<svg width="31" height="31" viewBox="0 0 31 31" fill="none" xmlns="http://www.w3.org/2000/svg">
<g clip-path="url(#clip0_320_3730)">
<path d="M3.8182 27.1811C3.10778 27.1811 2.49962 26.9281 1.99372 26.4222C1.48781 25.9163 1.23486 25.3082 1.23486 24.5977V9.09774C1.23486 8.38732 1.48781 7.77916 1.99372 7.27326C2.49962 6.76736 3.10778 6.5144 3.8182 6.5144H11.5682L14.1515 9.09774H24.4849C25.1953 9.09774 25.8034 9.35069 26.3093 9.85659C26.8152 10.3625 27.0682 10.9707 27.0682 11.6811V24.5977C27.0682 25.3082 26.8152 25.9163 26.3093 26.4222C25.8034 26.9281 25.1953 27.1811 24.4849 27.1811H3.8182Z" fill="black"/>
<path d="M5.16585 25.8334C4.45544 25.8334 3.84728 25.5805 3.34137 25.0746C2.83547 24.5687 2.58252 23.9605 2.58252 23.2501V7.75008C2.58252 7.03966 2.83547 6.4315 3.34137 5.9256C3.84728 5.4197 4.45544 5.16675 5.16585 5.16675H12.9159L15.4992 7.75008H25.8325C26.5429 7.75008 27.1511 8.00303 27.657 8.50894C28.1629 9.01484 28.4159 9.623 28.4159 10.3334V23.2501C28.4159 23.9605 28.1629 24.5687 27.657 25.0746C27.1511 25.5805 26.5429 25.8334 25.8325 25.8334H5.16585Z" fill="#E88D92"/>
</g>
<defs>
<clipPath id="clip0_320_3730">
<rect width="31" height="31" fill="white"/>
</clipPath>
</defs>
</svg>
